<?xml version="1.0" standalone="no"?>
<!DOCTYPE svg PUBLIC "-//W3C//DTD SVG 20010904//EN"
 "http://www.w3.org/TR/2001/REC-SVG-20010904/DTD/svg10.dtd">
<svg version="1.0" xmlns="http://www.w3.org/2000/svg"
 width="512.000000pt" height="512.000000pt" viewBox="0 0 512.000000 512.000000"
 preserveAspectRatio="xMidYMid meet">
<metadata>
Created by potrace 1.11, written by Peter Selinger 2001-2013
</metadata>
<g transform="translate(0.000000,512.000000) scale(0.100000,-0.100000)"
fill="#000000" stroke="none">
<path d="M2345 5024 c-602 -62 -1118 -305 -1531 -718 -130 -130 -213 -230
-304 -366 -560 -834 -560 -1926 0 -2760 91 -136 174 -236 304 -366 382 -382
831 -608 1391 -701 85 -14 165 -18 355 -18 239 0 303 6 477 41 l71 14 51 -31
c136 -85 284 -70 548 57 62 30 117 54 122 54 6 0 18 8 28 18 10 10 39 26 66
36 26 10 47 21 47 26 0 4 8 10 18 13 9 4 35 17 57 29 118 69 174 102 215 127
25 16 81 48 125 71 44 23 82 46 85 50 3 3 28 19 57 35 29 15 60 35 70 45 10 9
26 21 35 26 23 13 127 103 163 141 23 24 36 54 53 121 26 104 28 179 7 248
-14 46 -62 131 -93 163 -16 17 -16 19 46 156 139 305 207 602 219 945 20 593
-166 1156 -538 1625 -79 100 -281 304 -374 377 -360 283 -718 441 -1170 519
-90 15 -175 21 -340 24 -121 2 -238 1 -260 -1z m575 -363 c593 -106 1087 -430
1423 -933 160 -240 273 -531 324 -837 25 -149 25 -513 0 -662 -23 -136 -67
-303 -107 -408 -35 -89 -43 -92 -77 -27 -9 17 -19 33 -22 36 -4 3 -29 39 -56
80 -56 84 -56 84 -89 125 -31 40 -127 168 -146 196 -8 12 -31 43 -50 68 -19
26 -39 54 -45 63 -21 33 -90 133 -95 138 -11 11 -48 68 -84 130 -21 36 -53 92
-73 125 -19 33 -52 92 -73 132 -54 102 -92 166 -107 181 -7 7 -13 17 -13 22 0
5 -6 15 -14 23 -22 22 -175 306 -205 380 -32 80 -113 181 -156 196 -16 5 -59
13 -95 16 -54 6 -74 3 -115 -15 -27 -12 -53 -26 -56 -32 -4 -6 -15 -11 -25
-12 -11 -1 -75 -30 -144 -65 -69 -36 -147 -76 -175 -89 -27 -14 -55 -31 -63
-38 -7 -8 -18 -14 -24 -14 -15 0 -554 -269 -595 -297 -19 -13 -37 -23 -41 -23
-22 0 -156 -95 -218 -155 -50 -48 -62 -71 -80 -144 -24 -101 -19 -133 43 -270
32 -69 63 -130 69 -136 6 -5 19 -31 28 -57 10 -27 21 -48 26 -48 5 0 18 -26
30 -57 18 -50 62 -128 81 -143 3 -3 15 -26 27 -52 21 -48 33 -66 65 -96 9 -9
17 -21 17 -27 0 -20 44 -114 51 -109 4 2 10 -8 14 -24 3 -15 15 -43 27 -62 12
-19 30 -52 40 -72 9 -21 21 -38 26 -38 4 0 14 -16 21 -35 7 -19 16 -35 21 -35
5 0 16 -23 25 -51 10 -28 23 -53 31 -56 8 -3 19 -23 24 -45 6 -21 20 -47 31
-56 11 -9 24 -34 30 -55 5 -21 19 -46 30 -55 10 -9 19 -22 19 -28 0 -15 39
-102 40 -89 1 16 29 -39 30 -58 0 -9 10 -27 21 -38 12 -12 25 -36 30 -55 6
-18 20 -46 33 -61 13 -15 26 -40 29 -55 4 -15 14 -33 22 -41 8 -8 22 -33 31
-56 9 -22 20 -39 24 -36 5 3 13 -10 20 -29 6 -19 17 -36 24 -39 7 -3 16 -18
19 -34 3 -15 26 -59 51 -98 25 -38 46 -73 46 -77 0 -12 -196 -21 -350 -15
-452 17 -882 176 -1235 457 -419 335 -692 801 -782 1339 -25 149 -25 513 0
662 114 677 517 1239 1117 1557 230 122 489 199 790 236 19 2 127 3 240 1 152
-2 235 -8 320 -24z m287 -996 c54 -8 132 -84 158 -153 26 -69 149 -303 205
-391 58 -90 85 -136 175 -296 85 -154 142 -249 181 -305 17 -25 62 -90 99
-145 37 -55 98 -139 134 -187 36 -48 82 -111 101 -139 19 -28 48 -67 65 -86
16 -19 62 -85 101 -147 40 -61 96 -145 124 -186 28 -41 63 -94 78 -117 15 -23
38 -54 52 -70 39 -45 108 -148 120 -179 6 -16 19 -37 27 -47 12 -12 16 -39 17
-95 1 -119 -40 -193 -169 -301 -72 -60 -291 -197 -555 -347 -74 -42 -162 -93
-195 -114 -90 -56 -276 -143 -402 -189 -95 -34 -120 -40 -160 -34 -58 7 -125
40 -174 85 -42 38 -134 154 -169 213 -12 22 -28 45 -35 50 -11 10 -149 229
-195 310 -14 25 -41 73 -62 107 -20 35 -56 101 -81 148 -24 47 -77 141 -117
210 -40 69 -93 163 -117 210 -25 47 -48 90 -53 95 -4 6 -45 82 -90 170 -45 88
-87 167 -94 175 -6 8 -19 31 -28 50 -8 19 -43 82 -77 139 -35 57 -97 168 -138
245 -42 78 -90 164 -108 191 -89 139 -135 252 -135 330 0 39 5 50 38 82 67 66
192 142 417 254 160 79 269 135 585 296 293 150 373 184 410 178 14 -2 44 -7
67 -10z m-1505 -965 c8 -20 34 -66 57 -104 22 -37 41 -70 41 -72 0 -2 17 -30
37 -61 20 -32 60 -103 88 -158 28 -55 71 -131 95 -170 55 -89 215 -377 239
-430 20 -46 275 -508 300 -545 10 -14 32 -54 50 -90 49 -96 103 -193 116 -210
7 -8 25 -40 41 -70 16 -30 48 -86 73 -125 24 -38 55 -88 69 -110 14 -22 34
-53 46 -70 11 -16 40 -59 64 -95 122 -182 251 -282 363 -282 37 1 49 -2 39 -8
-20 -13 -116 -12 -165 1 -21 6 -64 27 -95 46 -95 61 -281 255 -334 348 -9 17
-39 66 -66 110 -27 44 -59 96 -70 115 -11 19 -32 53 -45 75 -13 22 -34 60 -46
85 -12 25 -41 79 -64 120 -42 74 -110 203 -250 475 -39 77 -83 158 -97 181
-14 22 -49 85 -78 140 -80 151 -101 184 -117 184 -8 0 -11 5 -8 10 3 6 -30 75
-74 155 -45 79 -81 147 -81 150 0 3 10 -1 22 -9 30 -22 38 -20 38 8 0 68 -47
118 -74 80 -12 -16 -14 -16 -28 7 -64 102 -148 299 -148 344 0 15 5 46 12 68
l12 40 11 -49 c7 -27 19 -65 27 -84z m162 -356 c3 -9 6 -23 6 -32 0 -14 -4
-13 -21 5 -12 11 -18 26 -15 32 10 16 23 14 30 -5z m2919 -1483 c-9 -12 -24
-21 -31 -21 -8 0 -2 12 15 30 31 33 45 25 16 -9z m-43 -35 c0 -2 -37 -35 -82
-73 -87 -72 -131 -101 -323 -208 -66 -38 -132 -76 -147 -86 -16 -11 -40 -27
-56 -38 -15 -10 -39 -22 -52 -26 -14 -4 -41 -17 -60 -29 -19 -13 -57 -37 -84
-54 -27 -18 -59 -32 -70 -32 -21 1 -21 1 -2 15 11 8 23 15 26 15 4 0 45 22 91
50 46 27 88 50 93 50 6 0 26 10 45 23 20 13 56 37 81 53 25 16 47 32 50 35 3
3 46 30 95 59 105 62 271 170 334 217 40 30 61 40 61 29z m-940 -586 c-20 -13
-33 -13 -25 0 3 6 14 10 23 10 15 0 15 -2 2 -10z m-215 -95 c-27 -13 -63 -27
-80 -30 -27 -6 -28 -5 -10 6 22 14 114 48 130 47 6 0 -12 -10 -40 -23z"/>
<path d="M2765 3266 c-220 -112 -482 -246 -582 -298 -100 -53 -208 -109 -240
-125 -80 -39 -93 -47 -93 -54 0 -13 216 -433 267 -519 27 -47 74 -125 103
-175 29 -49 80 -137 113 -195 33 -58 83 -145 112 -195 30 -49 92 -159 139
-243 47 -84 99 -172 115 -195 16 -23 68 -112 116 -197 115 -203 166 -290 221
-375 24 -38 56 -90 70 -115 73 -131 104 -170 134 -170 10 0 63 26 117 57 54
31 132 74 173 96 41 21 91 49 110 61 71 46 96 61 130 78 19 10 58 32 85 49 28
17 93 54 145 81 52 27 118 62 145 78 79 45 114 64 210 115 162 85 215 117 245
146 l29 30 -27 49 c-33 60 -58 96 -193 280 -59 80 -121 170 -138 200 -17 30
-45 73 -61 95 -44 60 -287 425 -361 543 -35 56 -81 128 -101 160 -20 31 -58
93 -84 137 -26 44 -82 136 -124 205 -131 214 -190 316 -228 392 -19 40 -48 89
-62 108 -15 19 -35 50 -44 68 -9 17 -22 32 -29 31 -6 -1 -192 -92 -412 -203z"/>
<path d="M3994 781 c-75 -34 -80 -136 -12 -222 33 -41 105 -52 148 -22 80 54
97 111 56 189 -15 28 -38 56 -52 63 -37 16 -93 13 -140 -8z m135 -17 c28 -20
51 -72 51 -115 0 -23 -10 -42 -39 -70 -62 -62 -124 -49 -162 35 -24 54 -24
108 0 130 39 35 114 45 150 20z"/>
</g>
</svg>
